<?xml version="1.0" standalone="no"?>
<!DOCTYPE svg PUBLIC "-//W3C//DTD SVG 20010904//EN"
 "http://www.w3.org/TR/2001/REC-SVG-20010904/DTD/svg10.dtd">
<svg version="1.0" xmlns="http://www.w3.org/2000/svg"
 width="1024.000000pt" height="1024.000000pt" viewBox="0 0 1024.000000 1024.000000"
 preserveAspectRatio="xMidYMid meet">

<g transform="translate(0.000000,1024.000000) scale(0.100000,-0.100000)"
fill="#000000" stroke="none">
<path d="M4690 8519 c-216 -20 -495 -84 -713 -163 -697 -253 -1276 -792 -1581
-1471 -28 -60 -54 -116 -59 -122 -7 -10 -80 -13 -304 -13 -319 0 -329 -2 -372
-56 -42 -53 -20 -173 35 -194 15 -6 214 -10 479 -10 441 0 455 1 465 20 6 10
24 59 41 107 43 126 166 371 244 488 185 277 449 535 722 704 382 237 819 361
1268 361 181 0 299 -12 466 -45 899 -179 1647 -901 1843 -1777 54 -240 71
-539 45 -776 -96 -888 -683 -1649 -1524 -1978 -248 -97 -485 -143 -776 -151
-415 -12 -742 58 -1104 236 -394 194 -709 472 -947 836 -134 204 -263 496
-307 695 -7 30 -17 67 -23 83 l-10 27 -460 0 -460 0 -35 -35 c-34 -34 -35 -38
-31 -96 4 -48 9 -65 31 -87 l27 -27 315 -3 314 -3 6 -32 c16 -73 112 -312 183
-452 254 -502 672 -923 1182 -1189 279 -145 555 -234 885 -283 168 -25 582
-25 745 0 298 46 572 133 839 266 l118 60 100 -107 c157 -169 867 -944 1102
-1202 117 -129 232 -251 256 -271 56 -46 164 -103 240 -125 170 -49 383 11
508 145 100 107 146 218 147 351 0 144 -43 263 -138 377 -27 32 -300 304 -608
605 -307 300 -625 616 -706 702 l-148 156 77 97 c332 424 518 917 564 1500 34
434 -68 931 -277 1346 -159 314 -421 642 -704 879 -395 331 -896 547 -1438
622 -120 17 -373 19 -522 5z m3086 -5680 c341 -337 466 -466 482 -500 43 -89
21 -204 -49 -263 -106 -90 -229 -70 -353 57 -33 34 -135 146 -226 248 -239
268 -866 963 -998 1106 -63 68 -112 127 -110 132 2 4 44 42 93 83 50 42 106
90 125 106 l35 31 270 -273 c149 -151 477 -478 731 -727z"/>
<path d="M4640 7564 c-291 -46 -612 -222 -837 -457 -200 -209 -346 -499 -360
-713 -9 -130 24 -194 123 -241 29 -13 55 -32 59 -40 3 -9 26 -158 50 -332 24
-174 76 -540 114 -814 43 -301 76 -510 86 -531 33 -69 240 -193 415 -250 365
-118 836 -122 1225 -11 179 52 363 162 404 242 14 29 101 471 101 517 0 5 13
6 29 3 69 -14 148 34 177 108 36 96 5 218 -87 342 l-39 52 50 318 c28 175 53
330 56 346 4 21 17 32 55 48 57 25 102 71 119 125 31 94 -10 285 -101 467
-206 415 -623 732 -1064 812 -131 24 -453 29 -575 9z m515 -231 c240 -37 446
-138 619 -303 139 -132 251 -280 325 -428 l32 -64 -43 27 c-137 85 -356 149
-648 190 -157 23 -701 32 -893 16 -345 -30 -697 -121 -809 -211 -21 -17 -38
-28 -38 -24 0 24 116 220 181 307 219 292 530 470 883 507 100 10 260 4 391
-17z m202 -798 c390 -46 654 -140 641 -229 -7 -47 -190 -124 -397 -167 -176
-36 -316 -50 -576 -56 -381 -9 -645 17 -900 88 -124 34 -272 100 -281 124 -14
36 22 82 89 114 131 63 444 123 732 141 172 11 540 3 692 -15z m-1417 -546
c94 -36 311 -87 457 -109 501 -73 1155 -29 1494 99 30 12 57 21 60 21 3 0 -3
-53 -13 -117 -40 -261 -109 -677 -112 -680 -1 -2 -127 54 -279 124 l-277 127
-6 35 c-11 67 -24 97 -57 128 -44 42 -69 53 -118 53 -160 0 -267 -197 -190
-348 23 -46 46 -67 94 -87 49 -20 82 -19 132 5 l41 20 305 -141 c167 -77 308
-144 312 -148 4 -4 -9 -108 -30 -231 l-37 -223 -44 -28 c-111 -70 -300 -124
-542 -154 -330 -40 -662 6 -906 126 -67 33 -127 66 -134 74 -10 13 -37 188
-111 735 -11 85 -39 287 -62 448 -23 160 -40 292 -37 292 3 0 30 -9 60 -21z
m1175 -489 c9 -28 -28 -107 -55 -115 -46 -14 -55 56 -14 104 29 35 60 40 69
11z m975 -368 c0 -20 -6 -35 -15 -39 -23 -8 -24 -4 -18 67 6 64 7 64 19 35 7
-16 13 -45 14 -63z"/>
<path d="M1343 6020 c-40 -24 -53 -48 -53 -100 0 -54 22 -95 63 -117 29 -15
86 -17 573 -21 637 -5 608 -10 625 98 11 66 -5 117 -44 140 -31 19 -54 20
-582 20 -527 0 -551 -1 -582 -20z"/>
</g>
</svg>
