<?xml version="1.0" standalone="no"?>
<!DOCTYPE svg PUBLIC "-//W3C//DTD SVG 20010904//EN"
 "http://www.w3.org/TR/2001/REC-SVG-20010904/DTD/svg10.dtd">
<svg version="1.0" xmlns="http://www.w3.org/2000/svg"
  viewBox="0 0 420.000000 475.000000"
 preserveAspectRatio="xMidYMid meet">
<metadata>
Created by potrace 1.16, written by Peter Selinger 2001-2019
</metadata>
<g transform="translate(20.000000,555.000000) scale(0.0700,-0.07000)"
fill="#000000" stroke="none">
<path d="M2905 7391 c-84 -22 -163 -82 -236 -179 -64 -83 -354 -447 -416 -520
-29 -34 -53 -68 -52 -75 1 -23 636 -802 650 -798 8 2 44 13 81 24 60 19 76 20
143 10 106 -15 190 -59 257 -133 62 -68 119 -177 142 -271 26 -108 19 -291
-16 -381 -12 -31 -52 24 376 -513 131 -165 244 -305 250 -312 8 -9 25 -7 71 9
179 61 383 -32 487 -222 64 -116 73 -157 73 -325 0 -165 -11 -217 -69 -330
-38 -72 -135 -174 -196 -205 -98 -50 -196 -62 -291 -34 -67 20 -110 46 -172
103 -61 57 -98 111 -130 192 -58 147 -66 277 -28 433 l21 88 -317 397 c-174
218 -320 398 -325 399 -4 2 -8 -476 -8 -1062 l0 -1065 43 -30 c63 -43 148
-139 180 -203 50 -102 70 -207 64 -338 -8 -175 -55 -294 -160 -407 -41 -43
-80 -73 -126 -95 -61 -30 -74 -33 -166 -33 -92 0 -105 3 -168 32 -177 84 -292
294 -291 533 1 216 106 425 262 517 l42 25 0 1058 0 1058 -42 25 c-122 72
-212 213 -248 387 -24 117 -22 192 9 305 l18 64 -276 344 c-152 188 -297 369
-323 400 l-47 57 -48 -58 c-105 -127 -197 -242 -958 -1192 -434 -542 -803
-1006 -822 -1031 -18 -25 -45 -77 -60 -115 -24 -62 -27 -82 -27 -204 -1 -119
2 -143 23 -200 13 -36 40 -90 60 -120 56 -84 2502 -3146 2573 -3221 89 -92
137 -114 258 -114 81 0 102 4 145 25 59 29 128 90 187 168 41 55 1061 1334
1388 1742 592 738 1066 1331 1102 1381 116 160 137 406 49 594 -20 43 -399
524 -1316 1670 -708 886 -1306 1629 -1329 1653 -22 24 -63 54 -91 67 -54 27
-150 39 -200 26z"/>
</g>
</svg>
