<?xml version="1.0" standalone="no"?>
<!DOCTYPE svg PUBLIC "-//W3C//DTD SVG 20010904//EN"
 "http://www.w3.org/TR/2001/REC-SVG-20010904/DTD/svg10.dtd">
<svg version="1.0" xmlns="http://www.w3.org/2000/svg"
  viewBox="0 0 724.000000 510.000000"
 preserveAspectRatio="xMidYMid meet">

<g transform="translate(-10.000000,664.000000) scale(0.070000,-0.070000)"
fill="#000000" stroke="none">
<path d="M4815 9320 c-732 -68 -1362 -310 -1927 -742 -483 -368 -885 -902
-1111 -1473 -304 -769 -338 -1643 -91 -2406 245 -760 700 -1378 1364 -1853
354 -253 827 -462 1267 -560 681 -151 1330 -118 1973 101 727 247 1378 744
1813 1384 327 481 513 972 593 1564 22 163 26 633 6 800 -68 575 -240 1079
-522 1530 -146 232 -259 375 -474 594 -569 579 -1282 930 -2121 1042 -174 23
-608 33 -770 19z m255 -428 l0 -349 -162 -12 c-162 -12 -398 -47 -502 -75
l-54 -14 -15 67 c-8 36 -30 134 -48 218 l-34 151 -235 -121 c-279 -144 -937
-487 -964 -503 -16 -10 -7 -26 101 -175 66 -90 123 -170 127 -177 6 -9 -9 -29
-45 -62 l-54 -49 -248 247 -247 247 37 33 c284 247 477 380 778 532 460 234
888 347 1430 379 72 5 131 9 133 10 1 0 2 -156 2 -347z m480 318 c307 -36 688
-138 985 -265 324 -138 692 -371 941 -598 l72 -64 -247 -246 -246 -246 -55 51
c-86 78 -266 211 -385 283 -396 240 -844 376 -1347 410 l-98 7 0 346 0 347
142 -7 c79 -4 186 -12 238 -18z m-28 -795 c532 -79 1015 -300 1421 -650 l47
-40 -254 -254 -254 -254 -68 55 c-38 30 -90 70 -116 88 l-48 33 19 31 c11 17
64 105 120 195 56 91 101 168 101 171 0 6 -463 226 -488 232 -9 2 -38 -65 -89
-207 -42 -115 -76 -211 -77 -212 -1 -1 -33 9 -71 23 -145 53 -415 104 -546
104 l-49 0 0 358 0 357 126 -7 c70 -5 171 -15 226 -23z m-452 -328 l0 -354
-112 -6 c-122 -7 -268 -29 -362 -53 -32 -8 -61 -13 -63 -10 -3 3 -40 157 -82
343 -74 326 -77 338 -58 346 33 13 255 55 367 71 58 8 151 14 208 15 l102 1 0
-353z m-2029 -442 c-234 -244 -452 -602 -572 -940 -24 -66 -44 -122 -46 -124
-1 -2 -41 10 -87 26 l-84 31 -11 -72 c-36 -245 -67 -661 -54 -730 l5 -26 -286
0 -286 0 0 63 c0 93 26 354 50 492 110 651 414 1271 865 1761 l88 96 248 -248
248 -248 -78 -81z m4691 448 c465 -522 734 -1085 847 -1773 22 -134 41 -342
41 -443 l0 -62 -344 0 -343 0 -7 119 c-27 508 -213 1034 -514 1454 -65 89 -99
131 -236 287 l-50 56 245 245 c134 134 245 244 246 244 1 0 53 -57 115 -127z
m-4265 -441 c62 -86 155 -215 207 -287 61 -83 92 -133 86 -139 -7 -7 -100 80
-261 241 l-251 250 49 46 c26 26 50 47 53 47 3 0 56 -71 117 -158z m141 -572
c-186 -201 -326 -436 -399 -670 -13 -41 -23 -76 -24 -77 0 -1 -124 38 -274 87
-150 49 -300 97 -332 106 -33 9 -59 22 -59 30 0 34 92 264 161 403 114 230
245 420 426 619 l77 85 247 -254 246 -254 -69 -75z m3645 360 c310 -385 517
-883 566 -1360 14 -137 18 -259 9 -260 -5 0 -163 0 -351 0 l-344 0 -6 98 c-26
387 -191 790 -449 1097 -42 50 -88 101 -102 115 l-27 24 253 254 253 253 65
-68 c36 -37 96 -106 133 -153z m-2183 -154 l0 -353 -87 -7 c-49 -3 -128 -15
-178 -25 -49 -10 -93 -16 -96 -12 -7 7 -152 626 -153 655 -1 15 10 22 49 33
120 31 300 58 423 62 l42 1 0 -354z m370 322 c113 -18 333 -79 353 -98 8 -7
-216 -624 -233 -643 -4 -4 -47 4 -96 18 -49 14 -135 31 -191 38 l-103 11 0
352 0 351 73 -4 c39 -2 128 -13 197 -25z m855 -365 c39 -29 81 -62 95 -72 l25
-20 -166 -168 c-91 -92 -203 -207 -248 -255 l-84 -87 -43 32 c-24 18 -43 35
-44 40 0 9 94 163 252 409 76 119 124 185 132 181 6 -3 43 -30 81 -60z m-2441
-118 c15 -19 25 -35 23 -35 -1 0 -18 16 -37 35 -19 19 -29 35 -23 35 6 0 23
-16 37 -35z m238 -388 l150 -157 -38 -46 c-113 -134 -170 -228 -225 -361 -18
-46 -35 -83 -38 -83 -6 0 -114 34 -503 156 -101 31 -158 54 -158 63 0 30 64
200 111 295 68 135 159 270 265 389 l87 99 99 -99 c55 -54 167 -169 250 -256z
m2552 174 c156 -193 303 -507 355 -759 19 -89 44 -322 37 -330 -2 -1 -162 -3
-357 -3 l-354 0 -7 70 c-24 229 -139 476 -305 652 l-34 36 252 257 252 257 66
-72 c36 -40 79 -89 95 -108z m-1574 -538 l0 -467 -41 39 c-22 22 -64 69 -93
105 -50 61 -55 72 -79 180 -15 63 -49 210 -77 327 -27 116 -50 216 -50 221 0
11 195 49 275 55 28 2 53 4 58 5 4 1 7 -208 7 -465z m240 446 c84 -13 210 -50
210 -61 0 -15 -262 -721 -281 -758 -10 -19 -29 -48 -43 -65 l-25 -30 -1 465 0
466 38 -3 c20 -2 66 -8 102 -14z m505 -218 l33 -28 -155 -154 c-86 -85 -152
-147 -147 -139 4 8 40 65 79 125 40 61 88 136 108 168 20 31 40 57 43 57 4 0
21 -13 39 -29z m175 -177 c132 -166 212 -353 235 -546 l6 -58 -75 0 c-42 0
-79 0 -83 0 -4 -1 -13 36 -20 81 -14 85 -37 174 -52 199 -8 12 -66 -8 -338
-112 -348 -133 -394 -150 -400 -145 -7 8 649 667 659 661 5 -3 36 -39 68 -80z
m-1475 -192 c107 -141 222 -293 256 -336 54 -68 59 -78 38 -74 -64 14 -753
223 -767 233 -4 4 43 126 68 176 51 100 183 274 201 264 5 -4 97 -122 204
-263z m479 -410 c-29 -7 -44 7 -44 40 l1 33 29 -35 c22 -27 25 -36 14 -38z
m-2800 -214 c11 -164 41 -390 77 -573 17 -88 33 -162 35 -164 1 -2 31 6 65 18
62 21 79 20 79 -3 0 -25 83 -225 144 -347 110 -219 264 -444 436 -637 l83 -94
-242 -241 -242 -242 -80 85 c-279 297 -498 636 -662 1026 -157 375 -238 731
-263 1167 l-7 117 285 0 285 0 7 -112z m4031 55 c-20 -171 -69 -321 -150 -462
l-47 -81 -266 202 c-147 111 -319 243 -383 293 l-116 90 36 6 c20 3 238 7 484
8 l448 1 -6 -57z m805 -15 c0 -276 -120 -645 -295 -907 l-67 -101 -37 27 c-21
16 -148 111 -283 212 l-245 184 40 66 c101 165 162 345 174 509 l6 82 353 0
354 0 0 -72z m803 0 c-28 -512 -167 -947 -434 -1353 l-89 -137 -39 29 c-21 15
-148 111 -283 212 l-246 184 37 51 c57 79 106 163 165 287 102 213 156 415
178 662 l12 137 352 0 351 0 -4 -72z m787 -5 c0 -159 -31 -413 -76 -611 -118
-526 -352 -1019 -674 -1415 -55 -67 -135 -160 -179 -207 l-80 -85 -62 62 -62
61 152 167 c83 91 151 170 151 175 0 5 -92 76 -204 160 l-205 151 83 127 c279
425 437 895 463 1371 l6 121 344 0 343 0 0 -77z m-3661 43 c-15 -12 -105 -72
-200 -131 -96 -60 -264 -167 -373 -238 l-200 -130 -23 29 c-12 16 -42 66 -65
112 -33 64 -39 85 -29 91 7 5 203 68 434 140 232 73 433 136 447 141 37 12 37
12 9 -14z m538 -464 c216 -287 263 -355 253 -367 -30 -36 -389 -190 -405 -174
-1 2 -26 128 -55 279 -28 151 -67 351 -86 444 -19 93 -34 185 -34 205 l1 36
30 -35 c17 -19 150 -194 296 -388z m-482 162 c-25 -109 -68 -300 -96 -424 -27
-124 -51 -235 -54 -247 -5 -22 -6 -22 -58 -7 -78 23 -282 125 -365 184 l-73
51 153 162 c277 293 422 439 478 484 53 42 55 42 58 20 2 -13 -18 -113 -43
-223z m-1016 -70 c19 -41 50 -98 68 -126 19 -28 30 -54 26 -58 -4 -4 -111 -71
-238 -150 -126 -78 -232 -144 -234 -146 -4 -3 99 -131 177 -218 l53 -60 -58
-58 -58 -59 -63 68 c-130 142 -260 349 -331 528 -63 161 -97 130 284 250 182
56 332 103 335 104 3 0 20 -33 39 -75z m-769 -256 c74 -212 225 -458 382 -623
l57 -61 -247 -247 -247 -247 -92 103 c-159 177 -279 350 -387 558 -60 115
-147 321 -161 379 -6 25 -3 26 322 127 180 56 331 102 334 102 4 1 21 -40 39
-91z m1121 -222 c111 -84 278 -172 414 -216 39 -12 71 -24 73 -25 2 -2 -134
-655 -143 -682 -3 -9 -28 -5 -92 12 -247 66 -472 179 -678 340 -139 109 -155
66 126 355 134 137 246 250 250 250 3 0 26 -15 50 -34z m1684 -340 c113 -153
203 -282 198 -285 -98 -73 -272 -167 -409 -221 -86 -35 -277 -90 -308 -90 -22
0 -32 45 -149 673 -1 5 45 24 103 43 58 19 159 63 225 98 66 36 123 64 127 63
3 -1 99 -128 213 -281z m-2254 -232 c39 -41 186 -153 272 -207 255 -162 591
-269 925 -293 l92 -7 0 -343 0 -344 -84 0 c-154 0 -441 47 -643 106 -368 107
-754 325 -1045 593 l-50 46 242 243 c134 133 246 242 249 242 4 0 23 -16 42
-36z m2733 -412 c103 -140 189 -259 192 -265 7 -21 -193 -150 -376 -242 -217
-109 -540 -211 -791 -250 -104 -16 -366 -34 -375 -26 -2 2 -4 158 -4 346 l0
341 123 12 c340 32 690 150 932 315 74 50 81 53 96 38 9 -9 101 -130 203 -269z
m-3243 -188 c287 -260 659 -465 1049 -578 216 -62 428 -99 638 -112 l112 -7 0
-339 0 -338 -27 0 c-79 0 -387 33 -523 56 -467 78 -890 241 -1295 500 -183
117 -297 205 -515 401 -12 11 19 47 225 253 132 132 243 240 246 240 4 0 44
-34 90 -76z m3663 -384 c88 -121 163 -220 167 -220 3 0 77 73 164 161 l157
162 59 -59 59 -58 -38 -39 c-52 -54 -199 -178 -309 -259 -280 -208 -637 -391
-983 -505 -295 -97 -592 -151 -922 -169 l-128 -7 0 340 0 340 123 7 c283 15
647 98 927 213 136 56 347 168 455 242 55 38 102 69 105 69 3 1 77 -98 164
-218z"/>
</g>
</svg>
