<?xml version="1.0" standalone="no"?>
<!DOCTYPE svg PUBLIC "-//W3C//DTD SVG 20010904//EN"
 "http://www.w3.org/TR/2001/REC-SVG-20010904/DTD/svg10.dtd">
<svg version="1.0" xmlns="http://www.w3.org/2000/svg"
  viewBox="0 0 725.000000 510.000000"
 preserveAspectRatio="xMidYMid meet">

<g transform="translate(180.000000,580.000000) scale(0.040000,-0.040000)"
fill="#000000" stroke="none">
<path d="M3396 13679 c-385 -41 -746 -212 -1080 -512 -169 -152 -444 -477
-604 -715 -384 -569 -637 -1137 -913 -2042 -186 -610 -341 -1495 -399 -2270
-32 -428 -40 -1061 -20 -1450 27 -525 90 -1091 165 -1490 128 -681 300 -1294
510 -1825 113 -286 382 -814 556 -1093 211 -339 508 -685 769 -898 242 -197
554 -347 865 -414 77 -17 147 -23 300 -27 297 -8 451 19 715 124 258 102 459
237 699 468 315 304 553 631 801 1095 51 96 126 238 167 315 85 158 254 586
352 890 115 353 214 743 290 1140 124 644 169 1051 207 1855 15 319 16 409 5
717 -24 722 -96 1394 -216 2033 -143 761 -472 1760 -756 2298 -172 326 -388
652 -603 910 -99 119 -395 422 -481 492 -368 300 -861 448 -1329 399z m134
-903 l0 -804 -67 -6 c-110 -10 -271 -43 -385 -79 -59 -19 -110 -32 -113 -29
-3 3 -5 21 -5 41 0 32 -52 477 -66 558 l-5 32 -57 -21 c-340 -127 -745 -369
-1079 -646 -111 -91 -133 -118 -133 -157 0 -15 38 -117 84 -228 46 -111 112
-271 146 -355 l62 -153 -24 -34 c-12 -19 -25 -35 -28 -35 -3 0 -77 143 -164
318 -87 174 -187 371 -223 437 l-64 120 36 75 c165 337 501 821 760 1098 99
105 342 313 460 392 227 153 554 262 838 278 l27 2 0 -804z m247 779 c156 -20
247 -40 368 -82 302 -105 551 -271 791 -528 287 -307 573 -710 774 -1091 l42
-81 -209 -422 -209 -422 -104 138 c-126 167 -333 377 -482 489 -123 92 -334
215 -458 267 -160 67 -338 110 -537 130 l-118 12 -3 803 c-2 696 0 802 12 802
8 0 68 -7 133 -15z m-245 -2435 c1 -396 2 -728 2 -737 1 -15 -12 -19 -85 -25
-58 -4 -116 -17 -175 -38 -126 -44 -119 -47 -122 35 -1 39 -20 205 -42 370
-22 165 -58 453 -81 639 l-42 340 22 17 c64 52 312 114 469 118 l52 1 2 -720z
m423 679 c145 -29 273 -74 412 -144 328 -166 638 -437 844 -737 l61 -89 -15
-37 c-9 -20 -128 -266 -266 -545 -138 -279 -251 -512 -251 -517 0 -15 -12 -12
-36 11 l-21 20 34 92 c19 51 77 198 128 327 52 129 97 246 100 260 8 33 3 37
-248 210 -140 96 -212 139 -218 133 -6 -6 -49 -152 -95 -324 -47 -173 -87
-319 -89 -326 -2 -8 -55 14 -147 61 -158 80 -286 127 -423 153 l-90 18 -3 734
-2 734 112 -7 c62 -4 158 -16 213 -27z m2079 -677 c152 -402 287 -857 380
-1272 153 -687 256 -1549 273 -2284 l6 -269 -184 8 c-101 4 -187 9 -191 12 -5
2 -8 52 -8 111 0 237 -34 664 -76 951 -126 878 -401 1709 -771 2333 -63 106
-63 106 -49 145 14 40 245 510 342 697 l57 109 73 -173 c41 -94 107 -260 148
-368z m-4463 82 c115 -225 209 -418 209 -429 0 -11 -43 -88 -95 -170 -228
-357 -413 -812 -585 -1430 -23 -82 -44 -153 -47 -157 -2 -4 -34 12 -71 37 -37
25 -72 45 -78 45 -30 0 -65 -133 -98 -374 -73 -529 -92 -731 -107 -1126 -6
-162 -12 -296 -13 -297 0 0 -53 -3 -116 -4 l-115 -4 -3 100 c-6 184 17 564 69
1110 35 373 43 430 110 790 142 762 360 1506 606 2065 33 74 71 163 84 198 13
34 28 61 33 59 5 -2 103 -187 217 -413z m415 -431 c9 -27 57 -146 106 -266
148 -362 239 -599 234 -604 -6 -6 -314 617 -377 760 l-38 89 22 34 c12 18 25
34 29 34 3 0 14 -21 24 -47z m3397 -105 c19 -29 73 -129 119 -223 395 -790
596 -1519 682 -2480 18 -192 36 -495 36 -591 l0 -64 -362 2 -363 3 -7 145
c-12 255 -49 546 -99 785 -96 457 -286 937 -492 1246 -47 71 -77 126 -77 142
0 15 30 91 66 169 94 207 448 918 455 918 4 0 23 -24 42 -52z m-3346 -413
c110 -220 223 -450 252 -511 l53 -111 -45 -70 c-154 -240 -274 -502 -392 -856
-46 -137 -85 -251 -88 -253 -2 -3 -70 42 -149 99 -215 155 -477 347 -505 371
l-25 22 31 116 c46 173 163 545 224 714 53 146 164 398 254 579 42 83 182 309
188 303 2 -2 93 -183 202 -403z m1511 -672 l-3 -648 -70 -6 c-38 -4 -87 -11
-108 -17 -29 -8 -39 -8 -42 1 -2 7 -13 91 -25 187 -11 96 -31 254 -45 350 -22
159 -54 443 -71 626 l-6 71 44 22 c68 32 186 60 261 60 l67 1 -2 -647z m233
618 c63 -15 146 -41 184 -56 82 -32 229 -107 264 -134 l24 -19 -71 -273 c-40
-151 -109 -416 -154 -590 l-81 -316 -72 33 c-40 18 -110 44 -156 58 l-84 24
-3 651 c-2 634 -2 651 17 651 10 0 70 -13 132 -29z m877 -576 l20 -25 -162
-333 c-90 -182 -196 -403 -236 -489 -57 -124 -76 -156 -86 -147 -11 9 -9 20 7
62 67 169 115 280 225 517 67 146 132 288 143 315 56 140 57 142 89 100z
m-2226 -158 c31 -50 404 -833 425 -894 l14 -42 -49 -73 c-80 -118 -168 -305
-222 -473 -12 -38 -24 -72 -26 -74 -8 -10 -664 459 -664 475 0 27 84 304 131
431 53 145 182 421 246 526 69 115 104 167 111 167 4 0 19 -19 34 -43z m2335
26 c49 -61 152 -228 208 -338 248 -490 415 -1172 415 -1700 l0 -145 -362 2
-363 3 -7 80 c-4 44 -19 170 -34 280 -21 164 -34 224 -69 331 -51 155 -125
311 -206 435 -32 49 -59 94 -59 100 0 6 42 99 94 208 88 183 224 472 318 674
23 48 43 87 46 87 3 0 11 -8 19 -17z m-1222 -886 c9 -254 0 -1040 -13 -1087
-9 -33 -9 -34 -15 -10 -12 49 -57 348 -82 545 -41 321 -85 689 -85 707 0 10
10 20 25 24 25 6 116 20 146 23 15 1 18 -23 24 -202z m295 123 c32 -16 61 -34
65 -40 8 -13 -83 -405 -135 -580 -22 -74 -57 -195 -77 -268 -20 -73 -40 -127
-44 -120 -8 16 -22 1062 -13 1070 9 10 141 -30 204 -62z m281 -291 c-32 -93
-248 -505 -259 -494 -3 3 57 129 132 281 76 152 140 274 142 271 2 -2 -4 -28
-15 -58z m168 -105 c159 -236 271 -627 271 -940 l0 -85 -62 3 -63 3 -3 35 c-7
102 -44 428 -51 444 -6 16 -28 4 -176 -94 -94 -62 -228 -154 -300 -205 -132
-94 -208 -139 -218 -128 -3 3 4 22 17 42 24 39 210 400 401 779 64 127 121
230 125 227 5 -3 32 -39 59 -81z m-1311 -26 c28 -57 131 -268 230 -470 99
-201 185 -383 192 -403 13 -40 6 -55 -26 -57 -10 -1 -152 88 -314 197 -399
269 -399 269 -393 297 17 77 62 202 100 277 57 111 145 261 154 261 4 0 30
-46 57 -102z m1426 -1115 l159 -6 -7 -96 c-14 -199 -58 -440 -107 -585 -29
-88 -85 -212 -99 -221 -4 -2 -126 156 -271 352 -297 400 -389 530 -389 550 0
10 54 13 278 13 152 0 348 -3 436 -7z m2287 -113 c-2 -134 -36 -783 -52 -980
-29 -376 -132 -1013 -240 -1480 -105 -457 -179 -709 -298 -1015 -43 -110 -96
-246 -117 -303 -21 -56 -41 -102 -44 -102 -9 0 -130 256 -130 274 0 8 27 54
60 103 193 281 230 338 230 354 0 19 -66 110 -214 294 -53 66 -108 137 -122
157 l-26 38 57 127 c280 623 482 1588 512 2455 l6 188 161 3 c89 2 174 3 190
2 l29 0 -2 -115z m-6001 83 c0 -177 65 -1061 78 -1075 4 -3 33 4 65 17 101 42
93 45 106 -42 35 -217 158 -734 243 -1013 91 -302 164 -482 318 -790 44 -88
80 -167 80 -176 0 -32 -391 -714 -410 -714 -7 0 -126 291 -173 425 -31 87
-164 543 -211 725 -149 570 -261 1284 -296 1875 -5 99 -14 257 -20 352 -5 94
-10 232 -10 307 l0 136 115 0 115 0 0 -27z m4708 -110 c-18 -380 -101 -848
-208 -1173 -43 -131 -169 -433 -189 -453 -5 -5 -49 43 -98 105 -79 98 -399
526 -461 614 l-22 32 36 77 c98 212 168 516 201 873 l6 62 371 0 371 0 -7
-137z m817 -15 c-39 -935 -181 -1645 -468 -2347 l-71 -174 -44 48 c-24 27 -80
98 -125 159 -45 61 -162 218 -260 350 -109 146 -176 246 -173 255 2 9 36 86
75 173 197 437 328 1013 348 1531 l6 157 359 0 360 0 -7 -152z m-2937 -20
c-63 -73 -164 -194 -225 -268 -135 -165 -281 -334 -291 -338 -4 -1 -22 28 -40
64 -31 62 -70 222 -86 345 -5 43 -3 47 22 59 75 34 530 228 552 235 22 7 23 6
11 -9 -25 -30 -4 -27 80 12 46 21 86 38 88 36 2 -2 -48 -63 -111 -136z m199
-115 c-3 -43 -39 -271 -81 -508 -42 -236 -83 -474 -92 -528 -11 -61 -23 -101
-31 -104 -7 -3 -31 6 -52 20 -56 37 -251 234 -251 253 0 9 8 28 18 42 11 15
43 72 72 127 29 55 117 217 196 360 78 143 159 295 180 338 21 42 40 77 43 77
2 0 1 -35 -2 -77z m412 -446 c121 -268 221 -496 221 -505 0 -41 -229 -232
-277 -232 -8 0 -13 12 -13 28 0 30 -50 396 -120 874 -37 257 -46 338 -36 327
2 -2 103 -224 225 -492z m-1339 261 c18 -93 62 -252 99 -362 l21 -58 -23 -28
c-12 -15 -79 -95 -148 -176 -168 -199 -199 -241 -199 -270 0 -13 34 -89 76
-170 l76 -146 -87 -144 c-48 -79 -92 -144 -96 -144 -25 0 -232 475 -309 709
-60 181 -120 474 -120 582 0 17 125 73 465 212 61 25 135 57 165 71 30 14 56
23 58 21 2 -2 12 -45 22 -97z m-786 -300 c19 -202 47 -327 143 -623 64 -197
115 -320 219 -526 41 -82 74 -153 74 -159 0 -6 -83 -149 -184 -318 -101 -169
-218 -365 -260 -437 -122 -206 -97 -208 -205 15 -217 451 -358 893 -461 1445
-23 121 -48 253 -56 294 -8 41 -12 76 -10 78 2 3 156 67 343 144 186 77 347
144 358 149 11 5 23 9 26 9 4 1 10 -32 13 -71z m1286 -648 c36 -36 98 -85 137
-110 65 -42 71 -47 67 -75 -2 -16 -20 -140 -39 -275 -69 -479 -116 -806 -121
-847 l-5 -42 -55 24 c-220 97 -506 362 -672 622 l-34 53 78 127 c101 166 96
162 124 123 12 -17 26 -28 30 -23 4 4 79 132 165 283 87 151 162 281 168 288
8 10 19 3 50 -35 22 -26 70 -77 107 -113z m1148 8 c297 -655 402 -895 402
-920 0 -14 -39 -61 -112 -135 -120 -122 -240 -210 -383 -281 -101 -50 -124
-57 -129 -40 -3 7 -10 85 -16 173 -6 88 -22 239 -35 335 -72 513 -89 664 -74
672 8 5 54 32 103 61 51 30 115 78 150 114 34 33 64 62 68 62 4 1 16 -18 26
-41z m-1858 -855 c214 -289 423 -475 675 -598 171 -84 375 -145 486 -145 l39
0 0 -688 c0 -379 -2 -691 -5 -694 -7 -7 -194 17 -285 37 -308 66 -653 242
-905 461 -205 179 -347 342 -543 623 -87 124 -99 148 -90 165 28 56 552 926
557 926 4 0 36 -39 71 -87z m2400 -358 c40 -88 117 -263 172 -390 54 -126 127
-287 160 -357 l61 -128 -38 -56 c-97 -140 -313 -358 -477 -480 -209 -156 -401
-245 -649 -304 -85 -20 -273 -49 -316 -50 l-23 0 0 688 0 688 89 12 c303 41
603 200 835 443 55 59 104 104 107 100 4 -3 39 -78 79 -166z m-3025 -697 c135
-198 277 -372 439 -534 236 -236 422 -367 692 -489 207 -93 449 -161 617 -172
l77 -6 0 -808 0 -809 -22 0 c-81 1 -280 37 -422 77 -376 106 -801 412 -1114
801 -277 346 -769 1204 -750 1310 4 21 400 732 409 732 3 0 36 -46 74 -102z
m3601 -584 c64 -148 123 -284 130 -301 8 -18 16 -33 18 -33 2 0 32 44 67 98
35 53 96 149 137 212 l75 114 25 -49 c34 -67 112 -254 112 -268 0 -16 -187
-367 -268 -502 -108 -182 -299 -463 -397 -585 -335 -418 -637 -660 -1004 -805
-107 -42 -329 -91 -452 -100 -46 -4 -94 -8 -106 -11 l-23 -4 0 813 0 814 108
12 c226 24 463 90 625 173 263 135 555 380 757 636 45 56 67 77 72 68 4 -7 60
-134 124 -282z"/>
</g>
</svg>
