<?xml version="1.0" standalone="no"?>
<!DOCTYPE svg PUBLIC "-//W3C//DTD SVG 20010904//EN"
 "http://www.w3.org/TR/2001/REC-SVG-20010904/DTD/svg10.dtd">
<svg version="1.0" xmlns="http://www.w3.org/2000/svg"
 viewBox="0 0 603.000000 503.000000"
 preserveAspectRatio="xMidYMid meet">

<g transform="translate(55.000000,543.000000) scale(0.070000,-0.080000)"
fill="#000000" stroke="none">
<path d="M4005 6576 c-60 -28 -87 -56 -114 -116 -20 -44 -21 -62 -21 -712 l0
-667 213 -3 c208 -3 213 -3 268 -31 31 -15 77 -49 102 -76 84 -90 77 124 77
-2378 l0 -2223 583 0 582 0 50 24 c59 28 98 66 119 118 14 34 16 342 16 2973
0 2440 -2 2941 -13 2968 -22 52 -68 98 -122 123 l-50 24 -820 0 -820 0 -50
-24z"/>
<path d="M2505 4921 c-49 -23 -97 -69 -121 -119 -18 -35 -19 -77 -22 -709 l-3
-673 199 0 c242 0 269 -7 353 -89 100 -98 91 39 97 -1564 l4 -1397 679 0 679
0 0 2186 c0 1631 -3 2197 -12 2225 -15 53 -68 112 -123 138 -45 21 -50 21
-867 21 -780 0 -825 -1 -863 -19z"/>
<path d="M1005 3286 c-46 -20 -94 -64 -118 -110 l-22 -41 0 -1295 0 -1295 22
-40 c25 -47 64 -85 113 -111 33 -18 79 -19 953 -22 l917 -2 -2 1382 -3 1383
-22 41 c-26 48 -70 88 -120 109 -50 21 -1671 22 -1718 1z"/>
</g>
</svg>
