<?xml version="1.0" standalone="no"?>
<!DOCTYPE svg PUBLIC "-//W3C//DTD SVG 20010904//EN"
 "http://www.w3.org/TR/2001/REC-SVG-20010904/DTD/svg10.dtd">
<svg version="1.0" xmlns="http://www.w3.org/2000/svg"
  viewBox="0 0 178.000000 204.000000"
 preserveAspectRatio="xMidYMid meet">

<g transform="translate(0.000000,204.000000) scale(0.100000,-0.100000)"
fill="#000000" stroke="none">
<path d="M1374 1638 c-131 -166 -248 -312 -259 -325 l-20 -24 -134 146 c-112
122 -136 144 -148 133 -26 -21 -105 -128 -101 -137 2 -5 84 -98 183 -206 99
-109 185 -205 192 -214 15 -20 7 -28 159 164 66 83 202 256 304 384 102 128
185 239 185 247 0 14 -101 134 -114 134 -4 0 -115 -136 -247 -302z"/>
<path d="M387 1829 c-115 -28 -211 -123 -243 -240 -20 -76 -21 -1179 0 -1254
27 -102 87 -179 174 -222 l57 -28 515 0 515 0 50 27 c55 28 123 96 150 148 41
79 45 141 44 700 -1 294 -4 546 -8 560 l-7 24 -26 -35 -27 -35 -3 -549 -3
-550 -24 -53 c-34 -75 -106 -138 -175 -152 -36 -7 -207 -10 -522 -8 -421 3
-472 5 -500 20 -55 30 -94 69 -122 122 l-27 51 0 600 0 600 30 60 c22 43 44
69 80 95 l49 35 503 3 502 3 26 31 c19 22 23 34 15 42 -14 14 -967 19 -1023 5z"/>
<path d="M471 1119 c-66 -13 -110 -40 -145 -88 -27 -38 -31 -52 -34 -119 -5
-140 46 -190 251 -248 73 -20 116 -57 123 -104 10 -72 -56 -130 -148 -130 -59
0 -108 29 -136 78 -22 39 -26 42 -68 42 -40 0 -44 -2 -44 -25 0 -38 38 -112
74 -142 122 -103 336 -70 401 61 41 82 30 200 -23 259 -25 28 -97 61 -190 87
-99 27 -142 61 -142 110 0 75 64 127 146 117 57 -6 89 -28 114 -77 19 -38 23
-40 65 -40 41 0 45 2 45 24 0 125 -146 224 -289 195z"/>
<path d="M1014 901 c-89 -40 -139 -141 -139 -281 0 -110 23 -179 79 -235 65
-64 175 -81 257 -39 28 14 99 88 99 103 0 5 3 16 6 25 5 13 -2 16 -43 16 -38
0 -51 -4 -61 -21 -15 -24 -70 -49 -107 -49 -61 0 -116 56 -130 133 l-7 37 182
0 183 0 -6 68 c-14 168 -94 262 -222 262 -27 0 -68 -9 -91 -19z m163 -103 c25
-23 37 -46 49 -93 l6 -25 -126 0 c-121 0 -126 1 -126 21 0 35 32 90 64 111 40
24 98 18 133 -14z"/>
</g>
</svg>
