<svg role="img" xmlns="http://www.w3.org/2000/svg" viewBox="0 0 95 75" aria-labelledby="title">
  <title id="title">selenium</title>
  <g transform="scale(0.06,-0.06) translate(200,-1200)" fill="#000000">
    <path d="M869 1163 c-55 -75 -121 -168 -194 -270 -32 -46 -59 -83 -60 -83 -1
      0 -34 40 -75 90 -80 97 -81 98 -121 34 -17 -29 -18 -36 -7 -52 41 -55 203
      -252 207 -252 5 1 84 110 270 374 103 147 97 127 57 175 l-35 42 -42 -58z"/>
    <path d="M182 1133 c-18 -9 -45 -31 -59 -49 -49 -65 -53 -99 -53 -478 0 -200
      5 -370 11 -395 13 -60 56 -117 105 -141 37 -19 60 -20 312 -20 301 0 317 3
      366 61 60 70 60 74 64 443 4 359 1 416 -23 396 -11 -9 -14 -79 -17 -368 l-3
      -357 -25 -44 c-45 -80 -55 -82 -372 -79 -263 3 -278 4 -305 24 -15 12 -37 36
      -48 55 -19 32 -20 55 -23 404 -3 414 -2 427 64 485 l35 30 278 0 c257 0 279 1
      294 18 10 10 14 22 10 25 -3 4 -135 7 -292 7 -244 0 -291 -3 -319 -17z"/>
    <path d="M239 694 c-66 -28 -96 -114 -65 -188 17 -40 44 -60 111 -82 66 -22
      85 -40 85 -81 0 -43 -30 -73 -74 -73 -36 0 -86 32 -86 56 0 9 -11 14 -31 14
      -29 0 -31 -2 -25 -27 17 -71 83 -118 154 -109 83 11 122 58 122 150 0 73 -28
      107 -112 135 -34 11 -69 28 -80 37 -42 38 -6 114 54 114 28 0 78 -38 78 -60 0
      -5 14 -10 31 -10 29 0 31 2 24 28 -21 86 -106 130 -186 96z"/>
    <path d="M563 560 c-51 -31 -68 -72 -68 -170 0 -63 5 -94 18 -118 43 -79 134
      -92 195 -27 17 19 32 42 32 50 0 22 -40 19 -66 -6 -13 -12 -35 -21 -50 -21
      -34 0 -74 42 -74 78 0 24 1 24 101 24 l101 0 -7 53 c-9 70 -32 116 -69 138
      -40 24 -73 24 -113 -1z m86 -50 c19 -10 48 -67 39 -76 -5 -4 -75 -7 -120 -5
      -26 1 -22 38 7 66 26 27 46 31 74 15z"/>
  </g>
</svg>
